<?xml version="1.0" encoding="UTF-8" standalone="no"?>
<!-- Generator: Adobe Illustrator 17.1.0, SVG Export Plug-In . SVG Version: 6.00 Build 0)  -->

<svg
   xmlns:dc="http://purl.org/dc/elements/1.1/"
   xmlns:cc="http://creativecommons.org/ns#"
   xmlns:rdf="http://www.w3.org/1999/02/22-rdf-syntax-ns#"
   xmlns:svg="http://www.w3.org/2000/svg"
   xmlns="http://www.w3.org/2000/svg"
   xmlns:sodipodi="http://sodipodi.sourceforge.net/DTD/sodipodi-0.dtd"
   xmlns:inkscape="http://www.inkscape.org/namespaces/inkscape"
   version="1.1"
   id="Layer_1"
   x="0px"
   y="0px"
   viewBox="0 0 64 64"
   enable-background="new 0 0 64 64"
   xml:space="preserve"
   inkscape:version="0.48.4 r9939"
   width="100%"
   height="100%"
   sodipodi:docname="PreK.svg"><metadata
   id="metadata47"><rdf:RDF><cc:Work
       rdf:about=""><dc:format>image/svg+xml</dc:format><dc:type
         rdf:resource="http://purl.org/dc/dcmitype/StillImage" /><dc:title></dc:title></cc:Work></rdf:RDF></metadata><defs
   id="defs45">
	
	

		
		
		
		
		
		
		
		
	</defs><sodipodi:namedview
   pagecolor="#ffffff"
   bordercolor="#666666"
   borderopacity="1"
   objecttolerance="10"
   gridtolerance="10"
   guidetolerance="10"
   inkscape:pageopacity="0"
   inkscape:pageshadow="2"
   inkscape:window-width="1027"
   inkscape:window-height="871"
   id="namedview43"
   showgrid="false"
   inkscape:zoom="3.6875"
   inkscape:cx="-10.305085"
   inkscape:cy="-11.389831"
   inkscape:window-x="0"
   inkscape:window-y="0"
   inkscape:window-maximized="0"
   inkscape:current-layer="Layer_1" />

<g
   id="g3818"><rect
     id="rect3"
     height="64"
     width="64"
     fill="#FFFFFF"
     opacity="0.01" /><g
     id="g7">
		<path
   stroke-miterlimit="10"
   d="m 42.4,40.7 c 0.1,-1.9 -1.5,-2.3 -5.1,-1.4 -1.5,0.4 -1.6,0.2 -1.9,0 -0.3,-0.2 -0.3,-1.2 -0.8,-1.3 -0.4,-0.1 -2,-0.1 -4.3,0.4 -0.2,0 -0.5,0.1 -0.7,0.2 h -0.1 c -1,0.2 -1.4,0.3 -1.3,0.4 -0.6,0.2 -1.3,0.4 -1.8,0.6 -0.1,0.1 -0.3,0.1 -0.4,0.2 -0.5,0.2 -1.2,0.3 -1.7,0.4 -0.6,0.2 -1,0.3 -1.2,0.4 -0.4,0.1 -1.9,0.9 -1.9,0.9 0,0 -1.7,1.3 -2.1,0.9 -0.3,-0.3 -0.3,-0.5 -0.1,-0.8 0.3,-0.5 3.2,-1.6 5.2,-2.1 0.7,-0.1 2.3,-0.6 3.5,-1.1 2.8,-1.1 4.4,-1.4 7,-1.4 1.8,0 2.2,-0.1 2.7,-0.5 1.3,-1.1 1.6,-2.7 0.9,-4.1 -0.1,-0.2 -0.4,-0.5 -0.8,-0.7 L 37.4,31.6 C 37.1,31.3 36.9,31.2 36.6,31.2 36.2,31 35.7,30.8 35.2,30.6 l 0,0 c 0,-0.1 -0.4,-0.2 -0.8,-0.2 -0.2,0 -0.3,0 -0.4,0 h -0.1 c -0.1,0.1 -1.7,0.7 -2.3,0.6 h -0.1 c -0.4,-0.1 -0.8,-0.1 -1.2,-0.2 l -3.2,0.5 0,0 c -0.5,0.2 -1,0.4 -1.4,0.7 -0.9,0.5 -1.4,0.7 -2.2,0.7 -0.4,0 -0.7,0 -0.9,0.1 -0.4,0 -0.7,0 -0.9,0.1 -0.4,-0.2 -0.6,-0.2 -1.1,0 -0.6,0.3 -1.3,0.9 -2,1.4 -0.4,0.3 -1.5,2.4 -1.7,2.7 -0.6,0.7 0,3.1 0,3.1 0,0.1 -0.2,1.7 -0.1,2.4 0.1,0.8 0.6,2 0.9,2.4 0.3,0.8 0.6,1.7 1,2.7 0,0.1 0.1,0.2 0.1,0.3 0.1,0.4 0.3,0.7 0.4,1.1 0,1.1 1.4,4.8 1.9,5.3 0.1,0.1 0.3,0.2 0.5,0.3 l 0,0 c 0.4,0.5 0.8,1 1.4,1.4 0.1,0.1 0.2,0.1 0.3,0.2 0.4,0.3 0.8,0.5 1.3,0.7 0.5,0.1 1.2,0.3 1.7,0.5 1.2,0 3,-0.5 3.3,-1.3 0.7,-0.9 3.4,-0.8 3.9,-0.8 h 0.7 c 0,0 1.3,0.3 2.6,0.5 0.3,0 0.6,0 0.8,0 1.7,0.2 3.7,-0.6 4.5,-1.9 0.3,-0.6 1.3,-3.4 2.3,-6.3 0.5,-1.5 0.2,-2.5 -1.1,-3.8 -0.9,-0.9 -1,-1.2 -0.9,-3.1 z"
   id="path9"
   inkscape:connector-curvature="0"
   style="fill:#ffffff;stroke:#ffffff;stroke-width:6;stroke-miterlimit:10" />
		<path
   stroke-miterlimit="10"
   d="m 57.7,34.9 c -0.5,-0.4 -0.8,-0.6 -1.7,-0.6 -0.2,0 -0.5,0 -0.9,0 -1.2,0 -1.9,0.2 -2.5,0.7 -0.6,0.5 -0.8,0.7 -0.8,0.7 l -0.4,0.5 c -0.2,0.3 -0.4,0.8 -0.6,1 -0.3,0.5 -2.6,3.2 -3.2,3.5 -0.7,0.4 -2.2,1.4 -2.4,2 -0.2,0.8 -0.1,1.4 0.4,2.2 0.2,0.3 0.4,0.5 0.5,0.5 l 0.5,0.2 1.5,-1 c 1.2,-1 3.8,-2.5 3.8,-2.5 0.1,-0.1 0.9,-0.4 2,-0.9 2.3,-1.1 3.5,-2.1 4.2,-3.4 0.8,-1 0.6,-2.1 -0.4,-2.9 z"
   id="path11"
   inkscape:connector-curvature="0"
   style="fill:#ffffff;stroke:#ffffff;stroke-width:6;stroke-miterlimit:10" />
		<path
   stroke-miterlimit="10"
   d="m 19.9,25.4 c -0.1,0 -0.2,0.1 -0.2,0.2 -0.2,0.1 -0.4,0.2 -0.4,0.3 0,0.4 0.5,1.8 1.1,2.7 0.2,0.4 0.6,0.7 0.9,0.8 0.5,0.4 1.1,0.4 1.5,-0.2 0.8,-0.7 0.5,-3.7 -0.4,-4.7 -0.2,-0.2 -0.4,-0.2 -1.2,0.2 -0.5,0.4 -1.1,0.6 -1.3,0.7 z"
   id="path13"
   inkscape:connector-curvature="0"
   style="fill:#ffffff;stroke:#ffffff;stroke-width:6;stroke-miterlimit:10" />
		<path
   stroke-miterlimit="10"
   d="M 16.9,32.8 C 17,32.6 17,32.5 17,32.2 17,31.3 15.8,29.1 14.6,27.9 14,27.3 13.3,26.3 13.1,26 12.9,25.7 12,24.5 11,23.5 10.1,22.6 9.1,21.3 8.8,20.8 8.5,20.1 8.2,19.6 7.8,19.2 L 7.7,18.7 c -0.8,-0.9 -1.7,-0.8 -2,0 -0.4,0.4 -0.4,1.1 0,2.1 0.1,0.2 0.1,0.3 0.2,0.4 0,0.1 0.1,0.3 0.1,0.4 l 0.2,0.7 c 0.2,0.3 0.5,0.7 0.7,0.7 0.2,0 0.9,-0.1 1.5,-0.4 l 0.1,0.1 c -0.4,0.6 -1.1,0.7 -0.9,1.6 0.2,0.8 2.9,4.1 3.5,4.2 0.2,0.1 0.4,0.1 0.6,0.1 0.3,0.1 0.6,0 0.8,-0.1 0.2,-0.2 0.4,-0.3 0.6,-0.2 -0.1,0.2 -0.2,0.4 -0.5,0.6 -0.4,0.5 0.5,1.2 0.8,1.6 l 0.1,0.1 c 0.2,0.3 0.4,0.6 0.7,0.9 0.1,0.2 0.2,0.3 0.4,0.6 0.2,0.4 0.5,0.7 0.5,0.9 0.1,0 0.6,1.2 1.7,0.1 0.1,0 0.1,-0.1 0.1,-0.3 z"
   id="path15"
   inkscape:connector-curvature="0"
   style="fill:#ffffff;stroke:#ffffff;stroke-width:6;stroke-miterlimit:10" />
		<path
   stroke-miterlimit="10"
   d="m 35.3,29.2 c 0.8,0.6 1.7,0 2.3,-1.8 0.5,-1.3 1.1,-3.9 1.2,-4.4 0.3,-1.1 0.2,-3.1 -0.2,-3.5 -0.2,-0.2 -0.2,-0.7 0.5,-1.3 l 0.3,-0.9 0.1,-2.1 c 0,-1.3 0,-3.1 0.1,-4 0.1,-1.2 0.1,-1.8 -0.3,-2.3 -0.6,-1.3 -2,-1.3 -2.9,0 -0.5,0.7 -0.5,1 -0.6,4.3 l -0.1,3.6 c 0,0 0.1,1.6 0,1.8 -0.1,0.1 -0.1,0.1 -0.1,0.2 l 0,0 v 0.1 c -0.2,0.2 -0.1,0.6 -0.2,0.7 -0.2,1 -0.1,1.9 -0.1,3.2 0,0 0.2,0.2 0,1.3 -0.5,0.8 -1.2,3.6 -0.7,4.6 0.1,0.4 0.5,0.5 0.7,0.5 z"
   id="path17"
   inkscape:connector-curvature="0"
   style="fill:#ffffff;stroke:#ffffff;stroke-width:6;stroke-miterlimit:10" />
		<path
   stroke-miterlimit="10"
   d="m 25.2,14.1 c 0.2,0.7 0.4,2.2 0.5,3.4 0.1,1.5 0.3,2.2 0.6,2.5 l 0,0 c 0.1,0.5 0.1,0.9 0.2,1.2 0,0.1 0.4,1.2 0.4,1.2 0.1,0.1 0.8,0.1 0.9,0.2 0.3,0.2 0.4,1 0.1,1.1 -0.4,0.3 -0.5,0.6 -0.5,1.4 0,1 0.2,3.1 0.5,3.4 0,0.3 0.7,0.2 1.4,0.2 0.2,0 0.9,-0.3 1.2,-0.6 0.6,-0.4 0.8,-1.3 0.8,-2.7 0,-1.2 0,-1.3 -0.7,-1.7 -0.8,-0.5 -0.9,-0.7 -0.1,-1 0.5,-0.2 0.6,-0.4 0.6,-1.1 0.1,-1.8 -0.4,-4.1 -0.8,-4.3 -0.2,0 -0.8,0 -1.5,0.1 -0.7,0.1 -1.4,-1 -0.3,-1.6 0.1,0 0.1,0 0.2,0 0.9,0 1.6,-0.8 1.5,-1.1 C 30.2,14.5 30,13.3 29.8,12 29.3,9.1 29,7.5 28.6,7.2 28.5,7.1 28,6.9 27.6,6.8 c -0.4,-0.1 -0.7,0 -1,0.2 -0.4,0.1 -0.9,0.3 -1.2,0.7 -0.6,0.6 -0.6,0.7 -0.5,2.9 0,1.2 0.1,2.8 0.3,3.5 z"
   id="path19"
   inkscape:connector-curvature="0"
   style="fill:#ffffff;stroke:#ffffff;stroke-width:6;stroke-miterlimit:10" />
		<path
   stroke-miterlimit="10"
   d="m 16.9,17.8 c -0.2,0 -0.3,0.1 -0.8,0.4 -0.2,0.2 -0.1,0.5 0,0.7 0.1,0.3 0.3,0.8 0.3,0.9 0.2,0.5 0.7,1.4 1.3,2.2 0.3,0.6 0.6,1.2 0.9,1.7 -0.1,0.1 0.3,0.7 0.4,0.6 0.1,0.1 0.1,0.1 0.1,0.1 0.6,0.5 0.9,0.3 1.1,-0.7 0,-0.5 0.1,-0.8 0.7,-1.1 0.7,-0.4 0.7,-0.4 0.6,-1.7 -0.2,-1.7 -0.8,-3.4 -1.5,-3.9 -0.5,-0.4 -0.8,-0.5 -1.4,-0.2 -0.2,0.1 -0.9,0.5 -1.7,1 z"
   id="path21"
   inkscape:connector-curvature="0"
   style="fill:#ffffff;stroke:#ffffff;stroke-width:6;stroke-miterlimit:10" />
		<path
   stroke-miterlimit="10"
   d="m 15.8,16 c 0.2,0.1 1.1,0.3 1.2,0.3 0.1,0.3 1.4,-0.7 1.6,-0.7 0.4,0 0.4,-0.2 0.3,-1.3 C 18.8,12.7 18,10.8 17.1,9.8 16.3,8.9 15.4,8.8 14.5,9.5 l -0.1,0.1 c 0,0 -0.8,2.1 0.2,4.5 0.5,1.7 0.6,1.9 1.2,1.9 z"
   id="path23"
   inkscape:connector-curvature="0"
   style="fill:#ffffff;stroke:#ffffff;stroke-width:6;stroke-miterlimit:10" />
	</g><path
     style="fill:#669acd"
     inkscape:connector-curvature="0"
     id="path27"
     d="m 42.4,40.7 c 0.1,-1.9 -1.5,-2.3 -5.1,-1.4 -1.5,0.4 -1.6,0.2 -1.9,0 -0.3,-0.2 -0.3,-1.2 -0.8,-1.3 -0.4,-0.1 -2,-0.1 -4.3,0.4 -0.2,0 -0.5,0.1 -0.7,0.2 h -0.1 c -1,0.2 -1.4,0.3 -1.3,0.4 -0.6,0.2 -1.3,0.4 -1.8,0.6 -0.1,0.1 -0.3,0.1 -0.4,0.2 -0.5,0.2 -1.2,0.3 -1.7,0.4 -0.6,0.2 -1,0.3 -1.2,0.4 -0.4,0.1 -1.9,0.9 -1.9,0.9 0,0 -1.7,1.3 -2.1,0.9 -0.3,-0.3 -0.3,-0.5 -0.1,-0.8 0.3,-0.5 3.2,-1.6 5.2,-2.1 0.7,-0.1 2.3,-0.6 3.5,-1.1 2.8,-1.1 4.4,-1.4 7,-1.4 1.8,0 2.2,-0.1 2.7,-0.5 1.3,-1.1 1.6,-2.7 0.9,-4.1 -0.1,-0.2 -0.4,-0.5 -0.8,-0.7 L 37.4,31.6 C 37.1,31.3 36.9,31.2 36.6,31.2 36.2,31 35.7,30.8 35.2,30.6 l 0,0 c 0,-0.1 -0.4,-0.2 -0.8,-0.2 -0.2,0 -0.3,0 -0.4,0 h -0.1 c -0.1,0.1 -1.7,0.7 -2.3,0.6 h -0.1 c -0.4,-0.1 -0.8,-0.1 -1.2,-0.2 l -3.2,0.5 0,0 c -0.5,0.2 -1,0.4 -1.4,0.7 -0.9,0.5 -1.4,0.7 -2.2,0.7 -0.4,0 -0.7,0 -0.9,0.1 -0.4,0 -0.7,0 -0.9,0.1 -0.4,-0.2 -0.6,-0.2 -1.1,0 -0.6,0.3 -1.3,0.9 -2,1.4 -0.4,0.3 -1.5,2.4 -1.7,2.7 -0.6,0.7 0,3.1 0,3.1 0,0.1 -0.2,1.7 -0.1,2.4 0.1,0.8 0.6,2 0.9,2.4 0.3,0.8 0.6,1.7 1,2.7 0,0.1 0.1,0.2 0.1,0.3 0.1,0.4 0.3,0.7 0.4,1.1 0,1.1 1.4,4.8 1.9,5.3 0.1,0.1 0.3,0.2 0.5,0.3 l 0,0 c 0.4,0.5 0.8,1 1.4,1.4 0.1,0.1 0.2,0.1 0.3,0.2 0.4,0.3 0.8,0.5 1.3,0.7 0.5,0.1 1.2,0.3 1.7,0.5 1.2,0 3,-0.5 3.3,-1.3 0.7,-0.9 3.4,-0.8 3.9,-0.8 h 0.7 c 0,0 1.3,0.3 2.6,0.5 0.3,0 0.6,0 0.8,0 1.7,0.2 3.7,-0.6 4.5,-1.9 0.3,-0.6 1.3,-3.4 2.3,-6.3 0.5,-1.5 0.2,-2.5 -1.1,-3.8 -0.9,-0.9 -1,-1.2 -0.9,-3.1 z" /><path
     style="fill:#669acd"
     inkscape:connector-curvature="0"
     id="path29"
     d="m 57.7,34.9 c -0.5,-0.4 -0.8,-0.6 -1.7,-0.6 -0.2,0 -0.5,0 -0.9,0 -1.2,0 -1.9,0.2 -2.5,0.7 -0.6,0.5 -0.8,0.7 -0.8,0.7 l -0.4,0.5 c -0.2,0.3 -0.4,0.8 -0.6,1 -0.3,0.5 -2.6,3.2 -3.2,3.5 -0.7,0.4 -2.2,1.4 -2.4,2 -0.2,0.8 -0.1,1.4 0.4,2.2 0.2,0.3 0.4,0.5 0.5,0.5 l 0.5,0.2 1.5,-1 c 1.2,-1 3.8,-2.5 3.8,-2.5 0.1,-0.1 0.9,-0.4 2,-0.9 2.3,-1.1 3.5,-2.1 4.2,-3.4 0.8,-1 0.6,-2.1 -0.4,-2.9 z" /><path
     style="fill:#669acd"
     inkscape:connector-curvature="0"
     id="path31"
     d="m 19.9,25.4 c -0.1,0 -0.2,0.1 -0.2,0.2 -0.2,0.1 -0.4,0.2 -0.4,0.3 0,0.4 0.5,1.8 1.1,2.7 0.2,0.4 0.6,0.7 0.9,0.8 0.5,0.4 1.1,0.4 1.5,-0.2 0.8,-0.7 0.5,-3.7 -0.4,-4.7 -0.2,-0.2 -0.4,-0.2 -1.2,0.2 -0.5,0.4 -1.1,0.6 -1.3,0.7 z" /><path
     style="fill:#669acd"
     inkscape:connector-curvature="0"
     id="path33"
     d="M 16.9,32.8 C 17,32.6 17,32.5 17,32.2 17,31.3 15.8,29.1 14.6,27.9 14,27.3 13.3,26.3 13.1,26 12.9,25.7 12,24.5 11,23.5 10.1,22.6 9.1,21.3 8.8,20.8 8.5,20.1 8.2,19.6 7.8,19.2 L 7.7,18.7 c -0.8,-0.9 -1.7,-0.8 -2,0 -0.4,0.4 -0.4,1.1 0,2.1 0.1,0.2 0.1,0.3 0.2,0.4 0,0.1 0.1,0.3 0.1,0.4 l 0.2,0.7 c 0.2,0.3 0.5,0.7 0.7,0.7 0.2,0 0.9,-0.1 1.5,-0.4 l 0.1,0.1 c -0.4,0.6 -1.1,0.7 -0.9,1.6 0.2,0.8 2.9,4.1 3.5,4.2 0.2,0.1 0.4,0.1 0.6,0.1 0.3,0.1 0.6,0 0.8,-0.1 0.2,-0.2 0.4,-0.3 0.6,-0.2 -0.1,0.2 -0.2,0.4 -0.5,0.6 -0.4,0.5 0.5,1.2 0.8,1.6 l 0.1,0.1 c 0.2,0.3 0.4,0.6 0.7,0.9 0.1,0.2 0.2,0.3 0.4,0.6 0.2,0.4 0.5,0.7 0.5,0.9 0.1,0 0.6,1.2 1.7,0.1 0.1,0 0.1,-0.1 0.1,-0.3 z" /><path
     style="fill:#669acd"
     inkscape:connector-curvature="0"
     id="path35"
     d="m 35.3,29.2 c 0.8,0.6 1.7,0 2.3,-1.8 0.5,-1.3 1.1,-3.9 1.2,-4.4 0.3,-1.1 0.2,-3.1 -0.2,-3.5 -0.2,-0.2 -0.2,-0.7 0.5,-1.3 l 0.3,-0.9 0.1,-2.1 c 0,-1.3 0,-3.1 0.1,-4 0.1,-1.2 0.1,-1.8 -0.3,-2.3 -0.6,-1.3 -2,-1.3 -2.9,0 -0.5,0.7 -0.5,1 -0.6,4.3 l -0.1,3.6 c 0,0 0.1,1.6 0,1.8 -0.1,0.1 -0.1,0.1 -0.1,0.2 l 0,0 v 0.1 c -0.2,0.2 -0.1,0.6 -0.2,0.7 -0.2,1 -0.1,1.9 -0.1,3.2 0,0 0.2,0.2 0,1.3 -0.5,0.8 -1.2,3.6 -0.7,4.6 0.1,0.4 0.5,0.5 0.7,0.5 z" /><path
     style="fill:#669acd"
     inkscape:connector-curvature="0"
     id="path37"
     d="m 25.2,14.1 c 0.2,0.7 0.4,2.2 0.5,3.4 0.1,1.5 0.3,2.2 0.6,2.5 l 0,0 c 0.1,0.5 0.1,0.9 0.2,1.2 0,0.1 0.4,1.2 0.4,1.2 0.1,0.1 0.8,0.1 0.9,0.2 0.3,0.2 0.4,1 0.1,1.1 -0.4,0.3 -0.5,0.6 -0.5,1.4 0,1 0.2,3.1 0.5,3.4 0,0.3 0.7,0.2 1.4,0.2 0.2,0 0.9,-0.3 1.2,-0.6 0.6,-0.4 0.8,-1.3 0.8,-2.7 0,-1.2 0,-1.3 -0.7,-1.7 -0.8,-0.5 -0.9,-0.7 -0.1,-1 0.5,-0.2 0.6,-0.4 0.6,-1.1 0.1,-1.8 -0.4,-4.1 -0.8,-4.3 -0.2,0 -0.8,0 -1.5,0.1 -0.7,0.1 -1.4,-1 -0.3,-1.6 0.1,0 0.1,0 0.2,0 0.9,0 1.6,-0.8 1.5,-1.1 C 30.2,14.5 30,13.3 29.8,12 29.3,9.1 29,7.5 28.6,7.2 28.5,7.1 28,6.9 27.6,6.8 c -0.4,-0.1 -0.7,0 -1,0.2 -0.4,0.1 -0.9,0.3 -1.2,0.7 -0.6,0.6 -0.6,0.7 -0.5,2.9 0,1.2 0.1,2.8 0.3,3.5 z" /><path
     style="fill:#669acd"
     inkscape:connector-curvature="0"
     id="path39"
     d="m 16.9,17.8 c -0.2,0 -0.3,0.1 -0.8,0.4 -0.2,0.2 -0.1,0.5 0,0.7 0.1,0.3 0.3,0.8 0.3,0.9 0.2,0.5 0.7,1.4 1.3,2.2 0.3,0.6 0.6,1.2 0.9,1.7 -0.1,0.1 0.3,0.7 0.4,0.6 0.1,0.1 0.1,0.1 0.1,0.1 0.6,0.5 0.9,0.3 1.1,-0.7 0,-0.5 0.1,-0.8 0.7,-1.1 0.7,-0.4 0.7,-0.4 0.6,-1.7 -0.2,-1.7 -0.8,-3.4 -1.5,-3.9 -0.5,-0.4 -0.8,-0.5 -1.4,-0.2 -0.2,0.1 -0.9,0.5 -1.7,1 z" /><path
     style="fill:#669acd"
     inkscape:connector-curvature="0"
     id="path41"
     d="m 15.8,16 c 0.2,0.1 1.1,0.3 1.2,0.3 0.1,0.3 1.4,-0.7 1.6,-0.7 0.4,0 0.4,-0.2 0.3,-1.3 C 18.8,12.7 18,10.8 17.1,9.8 16.3,8.9 15.4,8.8 14.5,9.5 l -0.1,0.1 c 0,0 -0.8,2.1 0.2,4.5 0.5,1.7 0.6,1.9 1.2,1.9 z" /></g>
</svg>